<svg xmlns="http://www.w3.org/2000/svg" viewBox="-0.5 7.5 136.7 64.4" fill="#181830">
  <path d="m 31.08,41.38 q 0,0.6 -0.18,3.3 H 11.04 q 0.42,4.32 2.34,6.12 1.92,1.8 5.22,1.8 2.04,0 3.84,-0.66 1.8,-0.66 3.9,-2.1 l 3.54,4.8 q -5.34,4.32 -12.06,4.32 -7.5,0 -11.52,-4.5 -4.02,-4.5 -4.02,-12.18 0,-4.86 1.68,-8.7 1.74,-3.9 4.98,-6.12 3.3,-2.22 7.8,-2.22 6.78,0 10.56,4.26 3.78,4.26 3.78,11.88 z m -8.46,-2.4 q 0,-7.92 -5.7,-7.92 -2.64,0 -4.14,1.98 -1.44,1.92 -1.74,6.3 H 22.62 Z M 53.700036,25.3 q 1.44,0 3.18,0.48 l -1.44,8.22 q -1.68,-0.42 -2.82,-0.42 -2.82,0 -4.38,1.98 -1.56,1.98 -2.46,6 V 58 h -8.52 V 26.2 h 7.38 l 0.78,6.18 q 1.14,-3.36 3.3,-5.22 2.22,-1.86 4.98,-1.86 z m 15.899961,0.9 V 58 h -8.52 V 26.2 Z m -4.32,-16.38 q 2.28,0 3.72,1.44 1.5,1.38 1.5,3.54 0,2.16 -1.5,3.6 -1.44,1.38 -3.72,1.38 -2.28,0 -3.72,-1.38 -1.44,-1.44 -1.44,-3.6 0,-2.16 1.44,-3.54 1.44,-1.44 3.72,-1.44 z m 41.159973,18.12 q -3.12,1.2 -9.179997,1.2 2.999997,1.32 4.439997,3.3 1.44,1.92 1.44,4.86 0,3.06 -1.62,5.52 -1.559997,2.4 -4.559997,3.78 -2.94,1.38 -6.9,1.38 -2.1,0 -3.72,-0.42 -1.2,0.78 -1.2,2.1 0,0.96 0.72,1.56 0.78,0.54 2.94,0.54 h 4.86 q 3.54,0 6.18,1.2 2.699997,1.14 4.139997,3.24 1.5,2.04 1.5,4.68 0,4.86 -4.2,7.56 -4.139997,2.76 -11.999997,2.76 -5.64,0 -8.94,-1.2 -3.24,-1.14 -4.56,-3.36 -1.32,-2.22 -1.32,-5.58 h 7.62 q 0,1.56 0.6,2.46 0.6,0.96 2.16,1.38 1.62,0.48 4.62,0.48 4.14,0 5.76,-1.02 1.68,-1.02 1.68,-2.88 0,-1.68 -1.26,-2.58 -1.26,-0.9 -3.72,-0.9 h -4.68 q -4.74,0 -7.08,-1.74 -2.34,-1.8 -2.34,-4.5 0,-1.68 0.96,-3.24 1.02,-1.62 2.76,-2.7 -2.94,-1.62 -4.32,-3.78 -1.32,-2.22 -1.32,-5.28 0,-3.48 1.68,-6.06 1.74,-2.64 4.8,-4.02 3.12,-1.44 7.08,-1.44 4.92,0.12 8.1,-0.84 3.179997,-0.96 6.779997,-3 z m -16.799997,3 q -2.4,0 -3.84,1.56 -1.38,1.5 -1.38,4.14 0,2.7 1.38,4.26 1.44,1.56 3.9,1.56 2.58,0 3.9,-1.5 1.32,-1.5 1.32,-4.44 0,-5.58 -5.28,-5.58 z m 43.980077,18.24 q 0,1.86 0.54,2.76 0.54,0.84 1.8,1.26 l -1.8,5.64 q -2.82,-0.24 -4.62,-1.32 -1.74,-1.08 -2.7,-3.36 -3.12,4.8 -9.54,4.8 -4.74,0 -7.56,-2.7 -2.76,-2.76 -2.76,-7.14 0,-5.22 3.78,-7.98 3.78,-2.76 10.86,-2.76 h 3.66 v -1.56 q 0,-2.94 -1.32,-4.08 -1.32,-1.14 -4.38,-1.14 -3.36,0 -8.4,1.68 l -1.92,-5.7 q 5.94,-2.34 11.76,-2.34 6.48,0 9.54,2.82 3.06,2.76 3.06,8.28 z m -13.98,3.66 q 3.6,0 5.64,-3.54 v -6.06 h -2.82 q -6.9,0 -6.9,5.16 0,2.1 1.02,3.3 1.08,1.14 3.06,1.14 z" />
</svg>
